<svg xmlns="http://www.w3.org/2000/svg" viewBox="0 0 32 32">
  <path fill="#FFFFFF" d="M16 3C8.82 3 3 8.73 3 15.79c0 2.49.73 4.81 1.98 6.79L3.5 29l6.59-1.72A13.2 13.2 0 0 0 16 28.58c7.18 0 13-5.73 13-12.79C29 8.73 23.18 3 16 3zm0 23.36c-1.95 0-3.85-.52-5.51-1.49l-.39-.23-3.91 1.02 1.05-3.8-.25-.39a10.88 10.88 0 0 1-1.68-5.68c0-5.9 4.82-10.7 10.69-10.7 5.89 0 10.69 4.8 10.69 10.7 0 5.89-4.8 10.67-10.69 10.67z"/>
  <path fill="#FFFFFF" d="M22.24 18.53c-.34-.17-2-.98-2.31-1.09-.31-.12-.54-.17-.76.17-.22.34-.87 1.08-1.06 1.31-.2.22-.39.25-.73.08-.34-.17-1.44-.53-2.74-1.68-1.02-.9-1.7-2.01-1.9-2.35-.2-.34-.02-.52.15-.69.16-.16.34-.39.5-.59.17-.2.22-.34.34-.56.11-.22.06-.42-.03-.59-.08-.17-.76-1.84-1.04-2.52-.27-.66-.55-.57-.76-.58h-.65c-.22 0-.58.08-.89.42-.31.34-1.17 1.14-1.17 2.78 0 1.64 1.2 3.23 1.36 3.45.17.22 2.36 3.59 5.72 5.03.8.34 1.43.54 1.92.69.81.25 1.55.22 2.13.14.65-.1 2-.82 2.29-1.61.28-.79.28-1.47.2-1.61-.08-.14-.31-.22-.65-.39z"/>
</svg>